<svg xmlns="http://www.w3.org/2000/svg" xmlns:xlink="http://www.w3.org/1999/xlink" viewBox="0 0 220.895 49.977" overflow="visible"><g><path d="M 195.902 43.341 C 206.046 43.341 214.179 35.126 214.179 24.966 C 214.179 14.805 206.046 6.659 195.902 6.659 C 185.759 6.659 177.626 14.874 177.626 24.966 C 177.649 35.034 185.85 43.341 195.902 43.341 Z M 171 0 L 220.895 0 L 220.895 49.977 L 171 49.977 Z" fill="rgb(0,0,0)"></path><path d="M 106.438 32.54 L 106.438 49.977 L 56.543 49.977 L 56.543 0 L 106.415 0 L 106.415 25.675 L 63.168 25.675 C 63.534 35.469 71.599 43.341 81.445 43.341 C 88.87 43.341 95.221 38.902 98.145 32.54 Z M 63.968 19.519 L 98.808 19.519 C 96.249 11.007 89.395 6.659 81.468 6.659 C 73.54 6.659 66.161 11.304 63.968 19.519 Z" fill="rgb(0,0,0)"></path><path d="M 49.895 0 L 0 0 L 0 49.977 L 49.895 49.977 L 49.895 32.54 L 41.625 32.54 C 38.769 38.902 32.35 43.341 24.993 43.341 C 14.85 43.341 6.648 35.057 6.648 24.966 C 6.648 14.874 14.85 6.659 24.993 6.659 C 32.487 6.659 38.906 11.236 41.762 17.735 L 49.895 17.735 Z M 164.809 32.54 L 156.539 32.54 C 154.049 39.108 147.332 43.272 139.702 43.272 C 129.855 43.272 121.562 36.133 121.562 24.966 L 121.562 0 L 113.132 0 L 113.132 49.977 L 164.809 49.977 Z" fill="rgb(0,0,0)"></path></g></svg>
