<svg xmlns="http://www.w3.org/2000/svg" xmlns:xlink="http://www.w3.org/1999/xlink" viewBox="0 0 53 44.01" overflow="visible"><g><path d="M 0 0 L 53 0 L 53 44.01 L 0 44.01 Z" fill="transparent"></path><path d="M 14.264 1.976 L 2.927 5.471 C 2.403 5.632 2.065 5.738 1.833 5.832 L 1.782 5.853 C 1.798 5.863 1.813 5.873 1.829 5.883 C 2.042 6.015 2.358 6.174 2.849 6.419 L 7.123 8.561 L 10.886 4.79 C 11.046 4.63 11.263 4.54 11.489 4.54 C 11.715 4.54 11.932 4.63 12.092 4.79 C 12.426 5.124 12.426 5.665 12.092 5.999 L 8.329 9.77 L 10.467 14.054 C 10.712 14.545 10.871 14.862 11.001 15.076 C 11.011 15.091 11.021 15.107 11.031 15.123 C 11.039 15.106 11.046 15.089 11.053 15.072 C 11.148 14.84 11.252 14.501 11.413 13.975 L 14.903 2.616 C 15.03 2.2 15.108 1.944 15.147 1.757 C 15.149 1.746 15.152 1.735 15.154 1.723 L 15.12 1.731 C 14.934 1.77 14.678 1.848 14.263 1.976 Z M 15.774 0.087 C 16.244 0.26 16.615 0.631 16.787 1.102 C 16.923 1.471 16.873 1.837 16.816 2.109 C 16.759 2.382 16.657 2.713 16.544 3.082 L 13.032 14.517 C 12.886 14.993 12.759 15.404 12.633 15.715 C 12.516 16.005 12.326 16.408 11.942 16.648 C 11.475 16.94 10.895 16.989 10.385 16.777 C 9.968 16.603 9.714 16.238 9.55 15.971 C 9.375 15.684 9.181 15.298 8.958 14.85 L 6.733 10.391 C 6.692 10.31 6.672 10.27 6.656 10.241 L 6.655 10.239 L 6.654 10.238 C 6.625 10.222 6.585 10.202 6.504 10.162 L 2.049 7.93 C 1.604 7.707 1.219 7.514 0.934 7.339 C 0.669 7.175 0.304 6.921 0.13 6.502 C -0.081 5.992 -0.033 5.411 0.259 4.942 C 0.499 4.557 0.9 4.367 1.19 4.249 C 1.5 4.123 1.911 3.996 2.387 3.85 L 2.424 3.838 L 13.796 0.331 C 14.165 0.218 14.496 0.115 14.768 0.058 C 15.04 0.001 15.406 -0.049 15.773 0.087 Z M 21.582 8.481 C 21.7 8.481 21.808 8.546 21.865 8.649 L 26.138 16.424 L 30.411 8.649 C 30.467 8.546 30.575 8.482 30.693 8.481 L 33.039 8.481 C 33.218 8.482 33.362 8.626 33.362 8.805 L 33.362 22.596 C 33.363 22.682 33.329 22.764 33.268 22.825 C 33.208 22.886 33.125 22.92 33.039 22.92 L 30.693 22.92 C 30.515 22.92 30.371 22.775 30.371 22.596 L 30.371 14.517 L 27.174 20.097 C 27.117 20.197 27.009 20.259 26.894 20.259 L 25.362 20.259 C 25.246 20.259 25.14 20.197 25.082 20.097 L 21.905 14.551 L 21.905 22.597 C 21.905 22.775 21.761 22.92 21.582 22.921 L 19.236 22.921 C 19.058 22.921 18.913 22.776 18.913 22.597 L 18.913 8.805 C 18.913 8.626 19.058 8.482 19.236 8.481 Z M 37.919 10.262 C 37.919 11.239 37.112 12.042 36.123 12.042 C 35.651 12.042 35.198 11.854 34.865 11.52 C 34.532 11.186 34.345 10.734 34.346 10.262 C 34.352 9.286 35.146 8.499 36.123 8.501 C 37.109 8.501 37.919 9.3 37.919 10.262 Z M 49.181 10.262 C 49.187 9.286 49.981 8.499 50.958 8.501 C 51.945 8.501 52.755 9.3 52.755 10.262 C 52.755 11.24 51.948 12.042 50.958 12.042 C 50.486 12.042 50.033 11.854 49.7 11.52 C 49.367 11.186 49.18 10.734 49.181 10.262 Z M 47.334 13.709 C 48.018 14.443 48.378 15.545 48.378 17.021 L 48.378 22.596 C 48.378 22.775 48.234 22.92 48.055 22.92 L 45.883 22.92 C 45.706 22.92 45.561 22.775 45.561 22.596 L 45.561 17.585 C 45.561 16.613 45.375 16.047 45.099 15.723 C 44.832 15.413 44.429 15.267 43.829 15.267 C 43.172 15.267 42.655 15.494 42.298 15.903 C 41.938 16.318 41.709 16.958 41.709 17.837 L 41.709 22.596 C 41.709 22.682 41.676 22.764 41.615 22.825 C 41.554 22.886 41.472 22.92 41.386 22.92 L 39.214 22.92 C 39.037 22.92 38.892 22.775 38.892 22.596 L 38.892 13.116 C 38.892 12.938 39.037 12.793 39.215 12.793 L 41.387 12.793 C 41.565 12.794 41.709 12.938 41.709 13.116 L 41.709 13.676 C 42.502 13.009 43.513 12.657 44.585 12.657 C 45.682 12.657 46.647 12.972 47.334 13.709 Z M 34.715 13.116 C 34.715 12.938 34.86 12.793 35.038 12.793 L 37.209 12.793 C 37.387 12.793 37.532 12.938 37.532 13.116 L 37.532 22.596 C 37.533 22.774 37.388 22.919 37.21 22.92 L 35.038 22.92 C 34.952 22.92 34.87 22.886 34.809 22.825 C 34.749 22.764 34.715 22.682 34.715 22.596 Z M 49.873 12.794 L 52.045 12.794 C 52.223 12.794 52.367 12.939 52.367 13.117 L 52.367 22.596 C 52.367 22.775 52.223 22.92 52.045 22.92 L 49.872 22.92 C 49.695 22.92 49.55 22.775 49.55 22.596 L 49.55 13.116 C 49.55 12.938 49.695 12.793 49.873 12.793 Z M 3.006 20.082 C 3.006 19.903 3.151 19.758 3.329 19.758 L 9.972 19.758 C 12.232 19.758 13.896 20.412 14.993 21.553 C 16.088 22.692 16.577 24.272 16.577 26.039 C 16.577 28.111 15.874 29.679 14.622 30.723 C 13.378 31.758 11.634 32.242 9.61 32.242 L 6.78 32.242 L 6.78 38.471 C 6.78 38.649 6.635 38.794 6.457 38.794 L 3.329 38.794 C 3.15 38.794 3.005 38.649 3.005 38.471 L 3.005 20.082 Z M 6.78 28.771 L 9.3 28.771 C 10.528 28.771 11.372 28.46 11.905 27.98 C 12.433 27.504 12.699 26.822 12.699 25.987 C 12.699 25.087 12.414 24.405 11.905 23.945 C 11.39 23.48 10.605 23.203 9.533 23.203 L 6.78 23.203 Z M 26.376 26.624 L 26.376 25.831 C 26.376 25.653 26.521 25.508 26.699 25.508 L 29.595 25.508 C 29.773 25.509 29.917 25.653 29.917 25.831 L 29.917 38.471 C 29.917 38.556 29.884 38.638 29.823 38.699 C 29.763 38.76 29.68 38.794 29.595 38.794 L 26.828 38.794 C 26.65 38.794 26.505 38.65 26.505 38.471 L 26.505 37.59 C 25.567 38.507 24.309 39.002 22.77 39.002 C 20.944 39.002 19.333 38.33 18.179 37.131 C 17.026 35.935 16.347 34.232 16.347 32.203 C 16.347 28.237 19.083 25.326 22.745 25.326 C 24.15 25.326 25.426 25.764 26.376 26.624 Z M 20.857 34.745 C 21.428 35.35 22.246 35.712 23.236 35.712 C 25.016 35.712 26.505 34.335 26.505 32.229 C 26.505 30.123 25.095 28.59 23.235 28.59 C 22.312 28.59 21.493 28.939 20.904 29.557 C 20.315 30.177 19.94 31.084 19.94 32.229 C 19.94 33.27 20.284 34.139 20.857 34.745 Z M 30.806 25.654 C 30.866 25.563 30.967 25.508 31.076 25.508 L 34.178 25.508 C 34.309 25.508 34.428 25.587 34.478 25.708 L 37.658 33.487 L 40.623 25.716 C 40.67 25.591 40.79 25.508 40.924 25.508 L 43.898 25.508 C 44.005 25.507 44.105 25.56 44.166 25.649 C 44.226 25.737 44.238 25.85 44.198 25.95 L 37.271 43.717 C 37.223 43.841 37.103 43.923 36.97 43.923 L 33.971 43.923 C 33.864 43.923 33.763 43.87 33.703 43.782 C 33.643 43.693 33.631 43.58 33.671 43.481 L 35.897 37.778 L 30.78 25.96 C 30.737 25.86 30.747 25.745 30.806 25.654 Z" fill="rgb(7,149,95)"></path></g></svg>
